# xmcd
#
# Track frame offsets: 
#        183
#        12185
#        24928
#        50775
#        64343
#        79630
#        94075
#        106893
#        121658
#        137025
#        151810
#        164800
#        179455
#        192340
#        203823
#        216475
#        231645
#        245543
#        257310
#
# Disc length: 3768 seconds
#
# Revision: 6
# Processed by: cddbd v1.5.2PL0 Copyright (c) Steve Scherf et al.
# Submitted via: ExactAudioCopy v0.95b4
#
DISCID=0a0eb613
DTITLE=Various Artist - Big Band Jazz (Volume IV)
DYEAR=1983
DGENRE=Jazz
TTITLE0=Duke Ellington and his Famous Orchestra - The "C" Jam Blues
TTITLE1=Duke Ellington and his Famous Orchestra - Main Stem
TTITLE2=Duke Ellington and his Famous Orchestra - Happy Go Lucky Local
TTITLE3=Louis Armstrong and his Orchestra - Leap Frog
TTITLE4=Lionel Hampton and his Orchestra - Till Tom Special
TTITLE5=Lionel Hampton and his Orchestra - Flying Home
TTITLE6=Woody Herman and his Orchestra - Down Under
TTITLE7=Woody Herman and his Orchestra - Apple Honey
TTITLE8=Woody Herman and his Orchestra - Bijou (Rhumba a la Jazz)
TTITLE9=Woody Herman and his Orchestra - Four Brothers
TTITLE10=Billy Eckstine and his Orchestra - Cool Breeze
TTITLE11=Boyd Raeburn and his Orchestra - A Night in Tunisia (Interlud
TTITLE11=e)
TTITLE12=Boyd Raeburn and his Orchestra - Boyd Meets Stravinsky
TTITLE13=Dizzy Gillespie and his Orchestra - Our Delight
TTITLE14=Dizzy Gillespie and his Orchestra - Things to Come
TTITLE15=Claude Thornhill and his Orchestra - Robbins Nest
TTITLE16=Claude Thornhill and his Orchestra - Donna Lee
TTITLE17=Elliot Lawrence and his Orchestra - Elevation
TTITLE18=Stan Kenton and his Orchestra - What's New?
EXTD=
EXTT0=
EXTT1=
EXTT2=
EXTT3=
EXTT4=
EXTT5=
EXTT6=
EXTT7=
EXTT8=
EXTT9=
EXTT10=
EXTT11=
EXTT12=
EXTT13=
EXTT14=
EXTT15=
EXTT16=
EXTT17=
EXTT18=
PLAYORDER=
